<svg width="12" height="12" viewBox="0 0 12 12" fill="none" xmlns="http://www.w3.org/2000/svg">
<path d="M10.2426 1.75737C9.10938 0.624117 7.60266 0 6 0C4.39734 0 2.89062 0.624141 1.75737 1.75737C0.624117 2.89059 0 4.39734 0 6C0 7.60266 0.624117 9.10938 1.75737 10.2426C2.89059 11.3759 4.39734 12 6 12C7.60266 12 9.10938 11.3759 10.2426 10.2426C11.3759 9.10938 12 7.60266 12 6C12 4.39734 11.3759 2.89059 10.2426 1.75737ZM6 11.0305C3.22617 11.0305 0.969469 8.77383 0.969469 6C0.969469 3.22617 3.22617 0.969469 6 0.969469C8.77383 0.969469 11.0305 3.22617 11.0305 6C11.0305 8.77383 8.77383 11.0305 6 11.0305Z" fill="#999999"/>
<path d="M7.99734 7.31175L6.48473 5.79916V2.69079C6.48473 2.42309 6.26772 2.20605 5.99999 2.20605C5.73229 2.20605 5.51526 2.42309 5.51526 2.69079V5.99995C5.51526 6.12853 5.56633 6.25181 5.65724 6.34273L7.31179 7.9973C7.40643 8.09196 7.53051 8.13928 7.65456 8.13928C7.77862 8.13928 7.90267 8.09196 7.99736 7.9973C8.18662 7.80797 8.18662 7.50105 7.99734 7.31175Z" fill="#999999"/>
</svg>
