<svg width="10" height="15" viewBox="0 0 10 15" fill="none" xmlns="http://www.w3.org/2000/svg">
<path d="M4.52921 15C4.17042 15 3.81069 14.7492 3.12697 13.5009C2.71098 12.7414 2.22276 11.6909 1.75215 10.5429C0.905102 8.47673 0 5.81176 0 4.52921C0 2.03177 2.03177 0 4.52921 0C7.02664 0 9.05842 2.03177 9.05842 4.52921C9.05842 5.81176 8.15332 8.47665 7.30627 10.543C6.83566 11.691 6.34744 12.7415 5.93145 13.5009C5.24773 14.7492 4.888 15 4.52921 15ZM4.52921 0.974062C2.56889 0.974062 0.974023 2.56893 0.974023 4.52925C0.974023 5.41569 1.58439 7.51069 2.52892 9.86658C2.95577 10.9311 3.41025 11.9405 3.8087 12.7089C4.16376 13.3935 4.39581 13.7374 4.52921 13.9061C4.66261 13.7374 4.89466 13.3935 5.24971 12.7089C5.64817 11.9405 6.10265 10.9311 6.5295 9.86658C7.47407 7.51069 8.08439 5.41569 8.08439 4.52925C8.08439 2.56893 6.48953 0.974062 4.52921 0.974062Z" fill="#999999"/>
<path d="M4.52923 6.17395C3.50881 6.17395 2.67859 5.34373 2.67859 4.3233C2.67859 3.30287 3.50881 2.47266 4.52923 2.47266C5.54966 2.47266 6.37988 3.30287 6.37988 4.3233C6.37988 5.34373 5.5497 6.17395 4.52923 6.17395ZM4.52923 3.44668C4.04585 3.44668 3.65261 3.83995 3.65261 4.3233C3.65261 4.80665 4.04585 5.19992 4.52923 5.19992C5.01262 5.19992 5.40585 4.80665 5.40585 4.3233C5.40585 3.83995 5.01266 3.44668 4.52923 3.44668Z" fill="#999999"/>
</svg>
